/* XPM */
static char *magnetocoin32[] = {
/* columns rows colors chars-per-pixel */
"32 32 137 2 ",
"   c None",
".  c #061A4B",
"X  c #0A1D4B",
"o  c #0A1E4E",
"O  c #0A1E4F",
"+  c #0A1F4F",
"@  c #061B50",
"#  c #0F214E",
"$  c #10244F",
"%  c #0D2250",
"&  c #112452",
"*  c #102454",
"=  c #162953",
"-  c #152854",
";  c #172955",
":  c #162A57",
">  c #96989B",
",  c #969B9D",
"<  c #A1A4A7",
"1  c #A7AAAD",
"2  c #AAABAB",
"3  c #AAABAC",
"4  c #A8ACAF",
"5  c #ACAEB0",
"6  c #B3B5B7",
"7  c #B2B5B8",
"8  c #B3B5B8",
"9  c #BABDBF",
"0  c #BBBDBF",
"q  c #BBBEBF",
"w  c #BCBEBF",
"e  c #BEBEBF",
"r  c #BDBFC1",
"t  c #BEC0C2",
"y  c #BFC2C4",
"u  c #C0C2C3",
"i  c #C2C3C3",
"p  c #C0C2C4",
"a  c #C1C2C4",
"s  c #C1C3C4",
"d  c #C1C3C5",
"f  c #C0C4C6",
"g  c #C2C4C6",
"h  c #C2C5C7",
"j  c #C4C4C4",
"k  c #C5C6C7",
"l  c #C3C6C9",
"z  c #C3C7CA",
"x  c #C5C7C8",
"c  c #C5C7C9",
"v  c #C6C7C8",
"b  c #C7C7C8",
"n  c #C7C8C9",
"m  c #C5C8CA",
"M  c #C5C8CB",
"N  c #C7C9CA",
"B  c #C7C9CC",
"V  c #C9CACA",
"C  c #C9CACB",
"Z  c #CACACB",
"A  c #CACBCB",
"S  c #C9CACC",
"D  c #C8CACD",
"F  c #C8CBCD",
"G  c #C9CBCD",
"H  c #CACBCC",
"J  c #C9CCCE",
"K  c #CBCDCE",
"L  c #CACDCF",
"P  c #CBCECF",
"I  c #CCCCCC",
"U  c #CCCCCD",
"Y  c #CDCDCE",
"T  c #CCCECF",
"R  c #CECECE",
"E  c #CECECF",
"W  c #CBCED0",
"Q  c #CCCED0",
"!  c #CDCFD0",
"~  c #CECFD0",
"^  c #CFD0D0",
"/  c #CED0D1",
"(  c #CED0D2",
")  c #D0D1D1",
"_  c #D0D1D2",
"`  c #D2D2D2",
"'  c #D1D2D4",
"]  c #D1D4D5",
"[  c #D3D4D4",
"{  c #D1D4D6",
"}  c #D2D4D6",
"|  c #D2D5D7",
" . c #D3D5D7",
".. c #D4D4D5",
"X. c #D5D6D7",
"o. c #D6D7D6",
"O. c #D6D6D7",
"+. c #D6D7D7",
"@. c #D3D5D8",
"#. c #D4D6D8",
"$. c #D4D7D9",
"%. c #D6D7D8",
"&. c #D7D7D8",
"*. c #D6D9DA",
"=. c #D7D9DB",
"-. c #D9DAD9",
";. c #D9DADA",
":. c #D8DADB",
">. c #DADADB",
",. c #DADBDB",
"<. c #D8DADC",
"1. c #D9DBDD",
"2. c #D9DCDE",
"3. c #DBDDDE",
"4. c #DDDFE0",
"5. c #DCDFE1",
"6. c #DFE0E1",
"7. c #E0E0E1",
"8. c #E0E1E2",
"9. c #E1E2E3",
"0. c #E4E4E4",
"q. c #E5E5E6",
"w. c #E7E7E7",
"e. c #E7E8E9",
"r. c #E7E9EA",
"t. c #E8E9EA",
"y. c #E9EAEB",
"u. c #EAEBEC",
"i. c #EBEBEC",
"p. c #EDEEEE",
"a. c #EFEFEF",
"s. c #F0F0F1",
"d. c #F1F2F2",
"f. c #F2F2F2",
"g. c #F2F2F3",
"h. c #F5F5F4",
"j. c #F7F7F7",
/* pixels */
"                                                                ",
"                                                                ",
"                                                                ",
"                                                                ",
"                                                                ",
"                                                                ",
"                  6 +.j , w _ 2 < M T   5 T 6                   ",
"                +.,.&.8.r C y.+.j _ a.j C >.0.2                 ",
"                +.y.T _ M +.T ~ J T { c ' H +.7                 ",
"                  J { y M { d.{ M 4.d.c J y.y.                  ",
"                    B T c t g 2.M i H i d w                     ",
"                    q.8.C / c j.j._ d.C / q                     ",
"                    i =.%.B i >.=.t &.4.d.T                     ",
"                      4 M H a.T w T r g d                       ",
"                        u.{ I M C C _ q                         ",
"                        >.2.>.H { =.a.J                         ",
"                        > r d c w ~ >.                          ",
"                            e.T / w                             ",
"                            9.#.8./                             ",
"                            1 +.w.l                             ",
"                                                                ",
"                                                                ",
"          #         o               o     *     :       %       ",
"              &     o                   : $                     ",
"      @   .   :           =             *       X               ",
"                            o                                   ",
"                                                                ",
"                                                                ",
"                                                                ",
"                                                                ",
"                                                                ",
"                                                                "
};
