/* XPM */
static char *magnetocoin64[] = {
/* columns rows colors chars-per-pixel */
"64 64 98 2 ",
"   c None",
".  c #04153E",
"X  c #041643",
"o  c #061945",
"O  c #0A1B45",
"+  c #031649",
"@  c #061A4C",
"#  c #0A1D4B",
"$  c #051C53",
"%  c #091F52",
"&  c #061E58",
"*  c #0E214C",
"=  c #14254C",
"-  c #19254F",
";  c #0D2253",
":  c #0B225A",
">  c #122451",
",  c #172954",
"<  c #1A2C55",
"1  c #11275B",
"2  c #13295B",
"3  c #182B59",
"4  c #1D305B",
"5  c #213156",
"6  c #20315B",
"7  c #29375A",
"8  c #122A60",
"9  c #192F60",
"0  c #273963",
"q  c #273C6A",
"w  c #2C3B6D",
"e  c #626569",
"r  c #64686B",
"t  c #6A6C6E",
"y  c #747474",
"u  c #72777B",
"i  c #7C7C7D",
"p  c #7B7E81",
"a  c #7D8084",
"s  c #828384",
"d  c #81868A",
"f  c #84898D",
"g  c #8B8C8E",
"h  c #8A8E92",
"j  c #8D9092",
"k  c #8E9398",
"l  c #949495",
"z  c #919599",
"x  c #94999D",
"c  c #9A9A9B",
"v  c #999DA1",
"b  c #9DA1A5",
"n  c #A2A4A5",
"m  c #A8A7A5",
"M  c #A3A6A9",
"N  c #A6AAAD",
"B  c #ABACAC",
"V  c #B0B0AF",
"C  c #A6ACB0",
"Z  c #ACAFB1",
"A  c #AEB1B4",
"S  c #B2B4B5",
"D  c #B2B6B9",
"F  c #B6B9BC",
"G  c #BABBBC",
"H  c #C0BFBF",
"J  c #BABEC1",
"K  c #BEC1C4",
"L  c #BFC4C8",
"P  c #C2C4C5",
"I  c #C3C6C9",
"U  c #C6C9CC",
"Y  c #CACBCC",
"T  c #C6CBD0",
"R  c #CBCED1",
"E  c #CED2D5",
"W  c #D3D4D5",
"Q  c #D8D8D7",
"!  c #D4D6D8",
"~  c #D6D9DB",
"^  c #DADBDD",
"/  c #DDDFE1",
"(  c #DDE1E3",
")  c #E2E3E4",
"_  c #E8E8E7",
"`  c #E6E7E8",
"'  c #E7E9EB",
"]  c #ECECEC",
"[  c #EFF0EF",
"{  c #EEEFF0",
"}  c #EFF0F1",
"|  c #F4F4F5",
" . c #F8F7F6",
".. c #F7F8F7",
"X. c #F8F8F7",
"o. c #F7F7F8",
"O. c #F7F8F8",
"+. c #F9F9F9",
/* pixels */
"                                                                                                                                ",
"                                                                                                                                ",
"                                                                                                                                ",
"                                                                                                                                ",
"                                                                                                                                ",
"                                                                                                                                ",
"                                                                                                                                ",
"                                                                                                                                ",
"                                                                                                                                ",
"                                                                                                                                ",
"                                                                                                                                ",
"                                                                                                                                ",
"                                    f D S V B y     v n c c i     f m c c g     u n c c l d                                     ",
"                                  N P J +.+.+.H t D S ] [ | W t N Z Q | [ ] c   D F | [ W Z                                     ",
"                                  E | m ^ +.+.| n / G U O.O.o.S P / N | X. .^ c [ V Q X.| _ c                                   ",
"                                Z | +.^ B ) / ) P S ' m ` | | ` B [ G P  .| | S W / m [ | | Q                                   ",
"                                I +. .| N S B B D v o.P b D V D z ! ` v S V S M M O.A B S Z D a                                 ",
"                                l | +.! R O.+.O.R ! | J / ] ] ) F ] ~ U [ ] ] I ! { K ` ] ] / k                                 ",
"                                  P ] J } ~ F J M | W U +.O.+.L E } J } X.+.( D o.U ! +.X. .G                                   ",
"                                  s F ! } A b ( S I K ] +.+.) C S U ^ +.+.| G b E L  .+.+.!                                     ",
"                                    r l v ! P P _ h n P G P S ` S h J G P S S ^ f A G S K x                                     ",
"                                        N } } n ) ` W W M W ` X.{ W Y M W ^ n ) / W W g                                         ",
"                                        ^ O.+.E n P K I C I +.X.X.+.W W +.+.W n W Y R V                                         ",
"                                        ^ .. .W K ^ ^ / D ! X. .X.+.F W X.X.) A Y P Y S                                         ",
"                                        n | ' J } } ' ! A ^ ' X. .} ~ B |  .K ) +.+.| Z                                         ",
"                                          Y Y ^ } b A F Z B n ) W b L c U ^ U O.+.+.U                                           ",
"                                          p n ^ K K Z | +.+.Q n J B W ' n b ^ ` ` ~ x                                           ",
"                                              a Z  .D U +.X.X.A K ) m | ! n B h p                                               ",
"                                                ( O.' n ) ] ] ^ Z [ G P | | ] S                                                 ",
"                                              N |  .+.F n m n D z ) ' v S A S C                                                 ",
"                                              i ) X.' K |  . .( I | W R | ] [ K                                                 ",
"                                                N  .U ^ | P U b ~ ] J }  .+.(                                                   ",
"                                                  J L  .R z Y U B I ^ +.+.| S                                                   ",
"                                                  r l M F Q B | S h F S K S                                                     ",
"                                                      d ^ +.F Y  .^ ^ n                                                         ",
"                                                      K o.+.' n U Y Y K u                                                       ",
"                                                      G +.+.{ D U Y Y I                                                         ",
"                                                      i W ) I ~ +.+.+.K                                                         ",
"                                                        b U K  .+.+.~                                                           ",
"                                                          b E ` ) ^ N                                                           ",
"                                                                                                                                ",
"                                                                                                                                ",
"                                                                                                                                ",
"                                                                                                O                               ",
"              # > % # = > % O         ; ; o         = % @ o       # > ; % O       > ; ; O     w 2 > -       > ; @ =             ",
"              4     >       #             % O     0       o       *     8 o       5     o       6                 %             ",
"              >       o     ;             & .     ;       #       *       #     : <   ; #       X         @       : X           ",
"            : +     % o     2 -     < 4 * ; .     ; #     =       @       o     4 > # *         X         @       & X           ",
"            8 +     $ o     2 =     -     ; X       3 =           @       @     2 -             o         $       q .           ",
"            : +     $ O     , =     @     : .     >               @       @     : #             %         : *     3             ",
"                            ,       ; # - ,       ; * * # #       O       *       > # >         1 # *       ; # 7               ",
"                                                          : O                                                                   ",
"                                                  #         #                                                                   ",
"                                                  % #     < =                                                                   ",
"                                                    % #                                                                         ",
"                                                                                                                                ",
"                                                                                                                                ",
"                                                                                                                                ",
"                                                                                                                                ",
"                                                                                                                                ",
"                                                                                                                                ",
"                                                                                                                                ",
"                                                                                                                                ",
"                                                                                                                                "
};
