/* XPM */
static char *magnetocoin16[] = {
/* columns rows colors chars-per-pixel */
"16 16 31 1 ",
"  c None",
". c #C2C4C5",
"X c #C3C5C7",
"o c #C4C5C6",
"O c #C6C7C8",
"+ c #C6C8C9",
"@ c #C7C8C9",
"# c #C8C9CB",
"$ c #C8CACB",
"% c #CBCCCD",
"& c #CCCDCE",
"* c #CCCDCF",
"= c #CECECF",
"- c #CCCED0",
"; c #CDCFD0",
": c #CDCFD1",
"> c #CED0D1",
", c #CFD0D1",
"< c #CED0D2",
"1 c #CFD1D2",
"2 c #CFD1D3",
"3 c #D0D1D2",
"4 c #D0D1D3",
"5 c #D1D3D4",
"6 c #D2D3D4",
"7 c #D2D4D5",
"8 c #D4D5D5",
"9 c #D5D6D7",
"0 c #D5D7D8",
"q c #D6D8D9",
"w c #D7D8D9",
/* pixels */
"                ",
"                ",
"                ",
"    =-X=O%@o    ",
"    1--01664    ",
"     6$0w6@     ",
"     X-9%11     ",
"      9-1-      ",
"       1$       ",
"       40       ",
"                ",
"                ",
"                ",
"                ",
"                ",
"                "
};
